<svg width="1260" height="333" viewBox="0 0 1260 333" fill="none" xmlns="http://www.w3.org/2000/svg">
<g opacity="0.3">
<g clip-path="url(#clip0)">
<path d="M128.238 190.617C125.643 191.183 125.198 191.639 124.621 194.238C124.055 191.639 123.599 191.198 121 190.617C123.599 190.055 124.04 189.599 124.621 187C125.183 189.599 125.654 190.055 128.238 190.617Z" fill="white"/>
</g>
<g clip-path="url(#clip1)">
<path d="M309.213 99.0683C306.618 99.6344 306.174 100.09 305.596 102.689C305.03 100.09 304.574 99.6496 301.975 99.0683C304.574 98.506 305.015 98.05 305.596 95.4512C306.158 98.05 306.63 98.506 309.213 99.0683Z" fill="white"/>
</g>
<g clip-path="url(#clip2)">
<path d="M413.238 20.6171C410.643 21.1833 410.198 21.6392 409.621 24.2381C409.055 21.6392 408.599 21.1985 406 20.6171C408.599 20.0548 409.04 19.5989 409.621 17C410.183 19.5989 410.654 20.0548 413.238 20.6171Z" fill="white"/>
</g>
<g clip-path="url(#clip3)">
<path d="M232.238 158.617C229.643 159.183 229.198 159.639 228.621 162.238C228.055 159.639 227.599 159.198 225 158.617C227.599 158.055 228.04 157.599 228.621 155C229.183 157.599 229.654 158.055 232.238 158.617Z" fill="white"/>
</g>
<g clip-path="url(#clip4)">
<path d="M71.2381 99.6171C68.643 100.183 68.1985 100.639 67.621 103.238C67.0548 100.639 66.5989 100.198 64 99.6171C66.5989 99.0548 67.0396 98.5989 67.621 96C68.1833 98.5989 68.6544 99.0548 71.2381 99.6171Z" fill="white"/>
</g>
<g clip-path="url(#clip5)">
<path d="M7.23811 220.617C4.64304 221.183 4.19848 221.639 3.62096 224.238C3.05483 221.639 2.59887 221.198 0 220.617C2.59887 220.055 3.03963 219.599 3.62096 217C4.18329 219.599 4.65444 220.055 7.23811 220.617Z" fill="white"/>
</g>
<g clip-path="url(#clip6)">
<path d="M11.2381 13.6171C8.64304 14.1833 8.19848 14.6392 7.62096 17.2381C7.05483 14.6392 6.59887 14.1985 4 13.6171C6.59887 13.0548 7.03963 12.5989 7.62096 10C8.18329 12.5989 8.65444 13.0548 11.2381 13.6171Z" fill="white"/>
</g>
<g clip-path="url(#clip7)">
<path d="M169.619 56.8086C168.322 57.0916 168.099 57.3196 167.81 58.619C167.527 57.3196 167.299 57.0992 166 56.8086C167.299 56.5274 167.52 56.2994 167.81 55C168.092 56.2994 168.327 56.5274 169.619 56.8086Z" fill="white"/>
</g>
<g clip-path="url(#clip8)">
<path d="M74.6191 304.809C73.3215 305.092 73.0992 305.32 72.8105 306.619C72.5274 305.32 72.2994 305.099 71 304.809C72.2994 304.527 72.5198 304.299 72.8105 303C73.0916 304.299 73.3272 304.527 74.6191 304.809Z" fill="white"/>
</g>
<g clip-path="url(#clip9)">
<path d="M226.619 246.809C225.322 247.092 225.099 247.32 224.81 248.619C224.527 247.32 224.299 247.099 223 246.809C224.299 246.527 224.52 246.299 224.81 245C225.092 246.299 225.327 246.527 226.619 246.809Z" fill="white"/>
</g>
<path d="M328.619 242.809C327.322 243.092 327.099 243.32 326.81 244.619C326.527 243.32 326.299 243.099 325 242.809C326.299 242.527 326.52 242.299 326.81 241C327.092 242.299 327.327 242.527 328.619 242.809Z" fill="white"/>
<path d="M430.619 161.809C429.322 162.092 429.099 162.32 428.81 163.619C428.527 162.32 428.299 162.099 427 161.809C428.299 161.527 428.52 161.299 428.81 160C429.092 161.299 429.327 161.527 430.619 161.809Z" fill="white"/>
<path d="M443.619 330.809C442.322 331.092 442.099 331.32 441.81 332.619C441.527 331.32 441.299 331.099 440 330.809C441.299 330.527 441.52 330.299 441.81 329C442.092 330.299 442.327 330.527 443.619 330.809Z" fill="white"/>
<path d="M578.619 161.809C577.322 162.092 577.099 162.32 576.81 163.619C576.527 162.32 576.299 162.099 575 161.809C576.299 161.527 576.52 161.299 576.81 160C577.092 161.299 577.327 161.527 578.619 161.809Z" fill="white"/>
<path d="M781.619 52.8086C780.322 53.0916 780.099 53.3196 779.81 54.619C779.527 53.3196 779.299 53.0992 778 52.8086C779.299 52.5274 779.52 52.2994 779.81 51C780.092 52.2994 780.327 52.5274 781.619 52.8086Z" fill="white"/>
<path d="M801.619 300.809C800.322 301.092 800.099 301.32 799.81 302.619C799.527 301.32 799.299 301.099 798 300.809C799.299 300.527 799.52 300.299 799.81 299C800.092 300.299 800.327 300.527 801.619 300.809Z" fill="white"/>
<path d="M745.619 163.809C744.322 164.092 744.099 164.32 743.81 165.619C743.527 164.32 743.299 164.099 742 163.809C743.299 163.527 743.52 163.299 743.81 162C744.092 163.299 744.327 163.527 745.619 163.809Z" fill="white"/>
<path d="M230.619 330.809C229.322 331.092 229.099 331.32 228.81 332.619C228.527 331.32 228.299 331.099 227 330.809C228.299 330.527 228.52 330.299 228.81 329C229.092 330.299 229.327 330.527 230.619 330.809Z" fill="white"/>
<path d="M1161.62 330.809C1160.32 331.092 1160.1 331.32 1159.81 332.619C1159.53 331.32 1159.3 331.099 1158 330.809C1159.3 330.527 1159.52 330.299 1159.81 329C1160.09 330.299 1160.33 330.527 1161.62 330.809Z" fill="white"/>
<path d="M272.238 10.6171C269.643 11.1833 269.198 11.6392 268.621 14.2381C268.055 11.6392 267.599 11.1985 265 10.6171C267.599 10.0548 268.04 9.59887 268.621 7C269.183 9.59887 269.654 10.0548 272.238 10.6171Z" fill="white"/>
<g clip-path="url(#clip10)">
<path d="M1059.24 190.617C1056.64 191.183 1056.2 191.639 1055.62 194.238C1055.05 191.639 1054.6 191.198 1052 190.617C1054.6 190.055 1055.04 189.599 1055.62 187C1056.18 189.599 1056.65 190.055 1059.24 190.617Z" fill="white"/>
</g>
<g clip-path="url(#clip11)">
<path d="M1240.21 99.0683C1237.62 99.6344 1237.17 100.09 1236.6 102.689C1236.03 100.09 1235.57 99.6496 1232.98 99.0683C1235.57 98.506 1236.01 98.05 1236.6 95.4512C1237.16 98.05 1237.63 98.506 1240.21 99.0683Z" fill="white"/>
</g>
<g clip-path="url(#clip12)">
<path d="M1154.24 138.617C1151.64 139.183 1151.2 139.639 1150.62 142.238C1150.05 139.639 1149.6 139.198 1147 138.617C1149.6 138.055 1150.04 137.599 1150.62 135C1151.18 137.599 1151.65 138.055 1154.24 138.617Z" fill="white"/>
</g>
<g clip-path="url(#clip13)">
<path d="M1002.24 99.6171C999.643 100.183 999.198 100.639 998.621 103.238C998.055 100.639 997.599 100.198 995 99.6171C997.599 99.0548 998.04 98.5989 998.621 96C999.183 98.5989 999.654 99.0548 1002.24 99.6171Z" fill="white"/>
</g>
<g clip-path="url(#clip14)">
<path d="M938.238 220.617C935.643 221.183 935.198 221.639 934.621 224.238C934.055 221.639 933.599 221.198 931 220.617C933.599 220.055 934.04 219.599 934.621 217C935.183 219.599 935.654 220.055 938.238 220.617Z" fill="white"/>
</g>
<g clip-path="url(#clip15)">
<path d="M575.238 3.61715C572.643 4.18328 572.198 4.63922 571.621 7.23809C571.055 4.63922 570.599 4.19848 568 3.61715C570.599 3.05482 571.04 2.59887 571.621 0C572.183 2.59887 572.654 3.05482 575.238 3.61715Z" fill="white"/>
</g>
<g clip-path="url(#clip16)">
<path d="M942.238 13.6171C939.643 14.1833 939.198 14.6392 938.621 17.2381C938.055 14.6392 937.599 14.1985 935 13.6171C937.599 13.0548 938.04 12.5989 938.621 10C939.183 12.5989 939.654 13.0548 942.238 13.6171Z" fill="white"/>
</g>
<g clip-path="url(#clip17)">
<path d="M643.238 304.617C640.643 305.183 640.198 305.639 639.621 308.238C639.055 305.639 638.599 305.198 636 304.617C638.599 304.055 639.04 303.599 639.621 301C640.183 303.599 640.654 304.055 643.238 304.617Z" fill="white"/>
</g>
<g clip-path="url(#clip18)">
<path d="M1100.62 56.8086C1099.32 57.0916 1099.1 57.3196 1098.81 58.619C1098.53 57.3196 1098.3 57.0992 1097 56.8086C1098.3 56.5274 1098.52 56.2994 1098.81 55C1099.09 56.2994 1099.33 56.5274 1100.62 56.8086Z" fill="white"/>
</g>
<g clip-path="url(#clip19)">
<path d="M1005.62 304.809C1004.32 305.092 1004.1 305.32 1003.81 306.619C1003.53 305.32 1003.3 305.099 1002 304.809C1003.3 304.527 1003.52 304.299 1003.81 303C1004.09 304.299 1004.33 304.527 1005.62 304.809Z" fill="white"/>
</g>
<g clip-path="url(#clip20)">
<path d="M1157.62 246.809C1156.32 247.092 1156.1 247.32 1155.81 248.619C1155.53 247.32 1155.3 247.099 1154 246.809C1155.3 246.527 1155.52 246.299 1155.81 245C1156.09 246.299 1156.33 246.527 1157.62 246.809Z" fill="white"/>
</g>
<path d="M1259.62 242.809C1258.32 243.092 1258.1 243.32 1257.81 244.619C1257.53 243.32 1257.3 243.099 1256 242.809C1257.3 242.527 1257.52 242.299 1257.81 241C1258.09 242.299 1258.33 242.527 1259.62 242.809Z" fill="white"/>
<path d="M1203.24 10.6171C1200.64 11.1833 1200.2 11.6392 1199.62 14.2381C1199.05 11.6392 1198.6 11.1985 1196 10.6171C1198.6 10.0548 1199.04 9.59887 1199.62 7C1200.18 9.59887 1200.65 10.0548 1203.24 10.6171Z" fill="white"/>
</g>
<defs>
<clipPath id="clip0">
<rect width="7.23809" height="7.23809" fill="white" transform="translate(121 187)"/>
</clipPath>
<clipPath id="clip1">
<rect width="7.23809" height="7.23809" fill="white" transform="translate(301.975 95.4512)"/>
</clipPath>
<clipPath id="clip2">
<rect width="7.23809" height="7.23809" fill="white" transform="translate(406 17)"/>
</clipPath>
<clipPath id="clip3">
<rect width="7.23809" height="7.23809" fill="white" transform="translate(225 155)"/>
</clipPath>
<clipPath id="clip4">
<rect width="7.23809" height="7.23809" fill="white" transform="translate(64 96)"/>
</clipPath>
<clipPath id="clip5">
<rect width="7.23809" height="7.23809" fill="white" transform="translate(0 217)"/>
</clipPath>
<clipPath id="clip6">
<rect width="7.23809" height="7.23809" fill="white" transform="translate(4 10)"/>
</clipPath>
<clipPath id="clip7">
<rect width="3.61905" height="3.61905" fill="white" transform="translate(166 55)"/>
</clipPath>
<clipPath id="clip8">
<rect width="3.61905" height="3.61905" fill="white" transform="translate(71 303)"/>
</clipPath>
<clipPath id="clip9">
<rect width="3.61905" height="3.61905" fill="white" transform="translate(223 245)"/>
</clipPath>
<clipPath id="clip10">
<rect width="7.23809" height="7.23809" fill="white" transform="translate(1052 187)"/>
</clipPath>
<clipPath id="clip11">
<rect width="7.23809" height="7.23809" fill="white" transform="translate(1232.98 95.4512)"/>
</clipPath>
<clipPath id="clip12">
<rect width="7.23809" height="7.23809" fill="white" transform="translate(1147 135)"/>
</clipPath>
<clipPath id="clip13">
<rect width="7.23809" height="7.23809" fill="white" transform="translate(995 96)"/>
</clipPath>
<clipPath id="clip14">
<rect width="7.23809" height="7.23809" fill="white" transform="translate(931 217)"/>
</clipPath>
<clipPath id="clip15">
<rect width="7.23809" height="7.23809" fill="white" transform="translate(568)"/>
</clipPath>
<clipPath id="clip16">
<rect width="7.23809" height="7.23809" fill="white" transform="translate(935 10)"/>
</clipPath>
<clipPath id="clip17">
<rect width="7.23809" height="7.23809" fill="white" transform="translate(636 301)"/>
</clipPath>
<clipPath id="clip18">
<rect width="3.61905" height="3.61905" fill="white" transform="translate(1097 55)"/>
</clipPath>
<clipPath id="clip19">
<rect width="3.61905" height="3.61905" fill="white" transform="translate(1002 303)"/>
</clipPath>
<clipPath id="clip20">
<rect width="3.61905" height="3.61905" fill="white" transform="translate(1154 245)"/>
</clipPath>
</defs>
</svg>
